<?xml version="1.0" encoding="UTF-8"?>
<svg id="Layer_1" data-name="Layer 1" xmlns="http://www.w3.org/2000/svg" xmlns:xlink="http://www.w3.org/1999/xlink" viewBox="0 0 977.39 244.55">
  <defs>
    <style>
      .cls-1 {
        fill: url(#radial-gradient-2);
      }

      .cls-2 {
        fill: url(#radial-gradient);
      }
    </style>
    <radialGradient id="radial-gradient" cx="237.73" cy="-10.66" fx="237.73" fy="-10.66" r="264.73" gradientTransform="translate(-5.19)" gradientUnits="userSpaceOnUse">
      <stop offset="0" stop-color="#46c6f0"/>
      <stop offset="1" stop-color="#1200ff"/>
    </radialGradient>
    <radialGradient id="radial-gradient-2" cx="237.73" cy="-10.66" fx="237.73" fy="-10.66" r="264.73" xlink:href="#radial-gradient"/>
  </defs>
  <g>
    <path class="cls-2" d="M111.65,113.93L27.08,198.64c7.66,9.69,16.69,18.23,26.82,25.32l75.24-75.37c5.48-5.49,7.33-13.76,4.38-20.94-6.62-16.1-20.52-27.79-37.21-30.12-2.37-.33-2.37-4.07,0-4.4,16.57-2.3,30.4-13.85,37.07-29.78,3.01-7.19,1.16-15.51-4.35-21.02L86.77,0c-12.47,4.1-24.08,10.08-34.5,17.62l59.31,59.41H7.4C3.19,88.64.63,101.03,0,113.93h111.65Z"/>
    <path class="cls-1" d="M142.16-4.12v50.47c3.51,24.51,20.36,43.61,41.63,46.77,2.42.36,2.42,4.45,0,4.81-21.28,3.17-38.12,22.27-41.63,46.78v99.84c13.1-2.44,25.5-6.88,36.84-13.04v-91.47l47.05,47.13c6.98-11.18,12.25-23.52,15.48-36.67l-36.53-36.59h40.04c-.63-12.9-3.2-25.3-7.41-36.9h-32.56l22.03-22.07c-6.42-10.66-14.37-20.29-23.54-28.6l-24.55,24.59V8.92c-11.34-6.16-23.74-10.6-36.84-13.04Z"/>
  </g>
  <g>
    <path d="M390.77,93.99c-3.37-3.82-7.22-7.13-11.58-9.88-7.87-4.96-16.68-7.44-26.44-7.44s-19.41,2.48-27.64,7.44c-8.23,4.96-14.79,11.67-19.66,20.13-4.88,8.46-7.32,17.95-7.32,28.45s2.44,19.81,7.32,28.34c4.88,8.53,11.47,15.29,19.77,20.24,8.3,4.96,17.48,7.44,27.53,7.44s18.57-2.48,26.44-7.44c4.36-2.75,8.21-6.07,11.58-9.91v13.85h22.29v-105.05h-22.29v13.82ZM386.07,150.21c-3.13,5.25-7.32,9.41-12.56,12.47-5.24,3.06-11.14,4.6-17.7,4.6s-12.45-1.53-17.7-4.6c-5.24-3.06-9.39-7.22-12.45-12.47-3.06-5.25-4.59-11.09-4.59-17.51s1.53-12.44,4.59-17.62c3.06-5.18,7.21-9.3,12.45-12.37,5.25-3.06,11.14-4.6,17.7-4.6s12.45,1.53,17.7,4.6c5.24,3.06,9.43,7.19,12.56,12.37,3.13,5.18,4.7,11.05,4.7,17.62s-1.57,12.26-4.7,17.51Z"/>
    <path d="M525.68,83.57c-7.21-4.6-15.33-6.89-24.36-6.89-8.3,0-15.84,2.19-22.61,6.57-4.89,3.16-9.08,7.06-12.56,11.67v-14.74h-23.38v105.05h23.38v-55.15c0-5.98,1.35-11.41,4.04-16.31,2.69-4.89,6.3-8.75,10.82-11.6,4.51-2.84,9.54-4.27,15.07-4.27s10.56,1.35,15.08,4.05c4.51,2.7,8.08,6.31,10.7,10.83,2.62,4.52,3.93,9.56,3.93,15.1v57.34h23.38v-57.34c0-9.63-2.11-18.27-6.34-25.93-4.23-7.66-9.94-13.79-17.15-18.38Z"/>
    <path d="M663.43,93.99c-3.37-3.82-7.22-7.13-11.58-9.88-7.87-4.96-16.68-7.44-26.44-7.44s-19.41,2.48-27.64,7.44c-8.23,4.96-14.79,11.67-19.66,20.13-4.88,8.46-7.32,17.95-7.32,28.45s2.44,19.81,7.32,28.34c4.88,8.53,11.47,15.29,19.77,20.24,8.3,4.96,17.48,7.44,27.53,7.44s18.57-2.48,26.44-7.44c4.36-2.75,8.21-6.07,11.58-9.91v13.85h22.29v-105.05h-22.29v13.82ZM658.73,150.21c-3.13,5.25-7.32,9.41-12.56,12.47-5.24,3.06-11.14,4.6-17.7,4.6s-12.45-1.53-17.7-4.6c-5.24-3.06-9.39-7.22-12.45-12.47-3.06-5.25-4.59-11.09-4.59-17.51s1.53-12.44,4.59-17.62c3.06-5.18,7.21-9.3,12.45-12.37,5.25-3.06,11.14-4.6,17.7-4.6s12.45,1.53,17.7,4.6c5.24,3.06,9.43,7.19,12.56,12.37,3.13,5.18,4.7,11.05,4.7,17.62s-1.57,12.26-4.7,17.51Z"/>
    <rect x="715.43" y="80.17" width="22.5" height="105.05"/>
    <path d="M835.26,80.72c-5.17-2.7-10.6-4.05-16.28-4.05-6.85,0-12.97,2.08-18.35,6.24-3.68,2.84-6.88,6.4-9.61,10.65v-13.38h-23.38v105.05h23.38v-55.15c0-6.71.95-12.47,2.84-17.29,1.89-4.82,4.51-8.57,7.87-11.27,3.35-2.7,7.21-4.05,11.58-4.05,3.79,0,7.24.95,10.38,2.85,3.13,1.9,5.75,4.45,7.86,7.66,2.11,3.21,3.75,6.86,4.92,10.94l19.88-11.38c-1.6-5.83-4.23-11.09-7.86-15.76-3.64-4.67-8.05-8.35-13.22-11.05Z"/>
    <path d="M955.1,80.17v13.82c-3.37-3.82-7.22-7.13-11.58-9.88-7.87-4.96-16.68-7.44-26.44-7.44s-19.41,2.48-27.64,7.44c-8.23,4.96-14.79,11.67-19.66,20.13-4.88,8.46-7.32,17.95-7.32,28.45s2.44,19.81,7.32,28.34c4.88,8.53,11.47,15.29,19.77,20.24,8.3,4.96,17.48,7.44,27.53,7.44s18.57-2.48,26.44-7.44c4.36-2.75,8.21-6.07,11.58-9.91v13.85h22.29v-105.05h-22.29ZM950.4,150.21c-3.13,5.25-7.32,9.41-12.56,12.47-5.24,3.06-11.14,4.6-17.7,4.6s-12.45-1.53-17.7-4.6c-5.24-3.06-9.39-7.22-12.45-12.47-3.06-5.25-4.59-11.09-4.59-17.51s1.53-12.44,4.59-17.62c3.06-5.18,7.21-9.3,12.45-12.37,5.25-3.06,11.14-4.6,17.7-4.6s12.45,1.53,17.7,4.6c5.24,3.06,9.43,7.19,12.56,12.37,3.13,5.18,4.7,11.05,4.7,17.62s-1.57,12.26-4.7,17.51Z"/>
    <ellipse cx="727.16" cy="46.43" rx="13.34" ry="13.36"/>
  </g>
</svg>