<svg width="24" height="27" viewBox="0 0 24 27" fill="none" xmlns="http://www.w3.org/2000/svg">
<mask id="mask0_2469_78440" style="mask-type:luminance" maskUnits="userSpaceOnUse" x="0" y="0" width="24" height="27">
<path d="M24 0H0V26.4375H24V0Z" fill="white"/>
</mask>
<g mask="url(#mask0_2469_78440)">
<path d="M12.1725 26.348C12.1168 26.3846 12.0516 26.4041 11.985 26.4041C11.9184 26.4041 11.8532 26.3846 11.7975 26.348L5.29871 22.1011C5.25152 22.0696 5.21284 22.0269 5.1861 21.9771C5.15935 21.9269 5.14536 21.8711 5.14536 21.8143C5.14536 21.7575 5.15935 21.7018 5.1861 21.6517C5.21284 21.6017 5.25152 21.5589 5.29871 21.5274L23.4394 9.66809C23.4913 9.63495 23.5511 9.61613 23.6126 9.61355C23.6741 9.61089 23.7355 9.62454 23.79 9.65302C23.8457 9.68166 23.8926 9.72479 23.9256 9.778C23.9585 9.83113 23.9765 9.89233 23.9775 9.95494V18.4505C23.9775 18.5076 23.9634 18.5637 23.9362 18.6138C23.9091 18.6639 23.8697 18.7064 23.8219 18.7374L12.1725 26.348ZM2.29871 20.1399C2.35472 20.1757 2.41978 20.1946 2.48621 20.1946C2.55264 20.1946 2.61768 20.1757 2.67371 20.1399L23.8144 6.3193C23.8622 6.28829 23.9016 6.24578 23.9287 6.19568C23.956 6.14556 23.97 6.08943 23.97 6.03242V0.497415C23.97 0.406413 23.9338 0.319149 23.8695 0.254801C23.8052 0.190451 23.7178 0.154298 23.6269 0.154298H19.0988C19.032 0.154113 18.9667 0.173673 18.9112 0.210534L0.161224 12.4712C0.113505 12.5023 0.0743196 12.5448 0.0471497 12.5949C0.0199798 12.645 0.00566608 12.7011 0.00558472 12.758V18.4505C0.00549663 18.5076 0.01969 18.5637 0.046875 18.6138C0.07406 18.6639 0.113386 18.7064 0.161224 18.7374L2.29871 20.1399ZM0 8.83551C8.81385e-05 8.89729 0.0168518 8.95791 0.0485229 9.01095C0.0801941 9.06399 0.125558 9.10754 0.179902 9.13693C0.234244 9.16624 0.295515 9.1804 0.357238 9.1779C0.418963 9.17532 0.478903 9.15617 0.53064 9.12244L13.2807 0.784295C13.3423 0.74381 13.3893 0.684505 13.4146 0.615199C13.4399 0.545889 13.4422 0.470272 13.4212 0.399546C13.4001 0.328818 13.3569 0.266752 13.2978 0.222573C13.2386 0.178396 13.1669 0.154459 13.0932 0.154298H0.34314C0.252137 0.154298 0.164782 0.190451 0.100434 0.254801C0.0360849 0.319149 0 0.406413 0 0.497415V8.83551Z" fill="url(#paint0_linear_2469_78440)"/>
</g>
<defs>
<linearGradient id="paint0_linear_2469_78440" x1="0" y1="0.154297" x2="26.1426" y2="24.0339" gradientUnits="userSpaceOnUse">
<stop stop-color="#1491FF"/>
<stop offset="1" stop-color="#100EFF"/>
</linearGradient>
</defs>
</svg>
